<?xml version="1.0"?>
<svg xmlns="http://www.w3.org/2000/svg" xmlns:xlink="http://www.w3.org/1999/xlink" xmlns:svgjs="http://svgjs.com/svgjs" version="1.1" width="512" height="512" x="0" y="0" viewBox="0 0 330.333 330.333" style="enable-background:new 0 0 512 512" xml:space="preserve" class=""><g>
<g xmlns="http://www.w3.org/2000/svg">
	<g>
		<path d="M330.096,135.026l-11.743-38.414c-0.391-1.273-1.239-2.36-2.379-3.046c-4.388-2.652-105.711-63.5-150.155-66.236    c-0.222-0.026-0.422-0.13-0.654-0.13c-0.377,0-0.794,0.042-1.184,0.053c-0.383-0.01-0.805-0.053-1.182-0.053    c-0.232,0-0.427,0.104-0.654,0.13C117.708,30.066,16.39,90.914,12,93.562c-1.231,0.743-2.118,1.943-2.458,3.341l-9.387,38.417    c-0.021,0.076,0.006,0.15-0.01,0.232C0.076,135.896,0,136.242,0,136.604v161.13c0,1.893,1.031,3.48,2.505,4.44l-0.686,0.69h2.257    c0.438,0.116,0.854,0.269,1.329,0.269h319.528c0.469,0,0.891-0.152,1.329-0.269h2.257l-0.696-0.686    c1.472-0.96,2.51-2.553,2.51-4.445v-161.13c0-0.527-0.089-1.042-0.231-1.527C330.096,135.058,330.102,135.042,330.096,135.026z     M19.493,101.667c14.505-8.599,106.948-62.512,144.495-63.614c37.673,1.102,130.66,55.411,144.645,63.703l9.999,32.708    l-93.54,66.538l-3.102-3.059c-16.067-15.82-37.02-23.721-57.965-23.721c-21.266,0-42.515,8.132-58.657,24.374l-1.696,1.709    l-92.161-65.971L19.493,101.667z M10.8,292.333V147.108l85.164,60.966l-83.684,84.259H10.8z M27.768,292.064l79.568-80.114    l5.698-5.737c1.785-1.793,3.66-3.476,5.598-5.058c12.772-10.446,28.626-16.131,45.388-16.131c16.743,0,32.622,5.705,45.389,16.157    c1.719,1.403,3.396,2.885,4.994,4.462l6.438,6.344l81.316,80.088H27.768V292.064z M319.528,292.333h-1.709l-84.918-83.642    l86.627-61.623V292.333z" fill="#e4e1e1" data-original="#000000" style="" class=""/>
	</g>
</g>
<g xmlns="http://www.w3.org/2000/svg">
</g>
<g xmlns="http://www.w3.org/2000/svg">
</g>
<g xmlns="http://www.w3.org/2000/svg">
</g>
<g xmlns="http://www.w3.org/2000/svg">
</g>
<g xmlns="http://www.w3.org/2000/svg">
</g>
<g xmlns="http://www.w3.org/2000/svg">
</g>
<g xmlns="http://www.w3.org/2000/svg">
</g>
<g xmlns="http://www.w3.org/2000/svg">
</g>
<g xmlns="http://www.w3.org/2000/svg">
</g>
<g xmlns="http://www.w3.org/2000/svg">
</g>
<g xmlns="http://www.w3.org/2000/svg">
</g>
<g xmlns="http://www.w3.org/2000/svg">
</g>
<g xmlns="http://www.w3.org/2000/svg">
</g>
<g xmlns="http://www.w3.org/2000/svg">
</g>
<g xmlns="http://www.w3.org/2000/svg">
</g>
</g></svg>
